%TF.GenerationSoftware,KiCad,Pcbnew,(6.0.8)*%
%TF.CreationDate,2023-04-21T14:35:49+02:00*%
%TF.ProjectId,Thermometer_IR_v2,54686572-6d6f-46d6-9574-65725f49525f,rev?*%
%TF.SameCoordinates,Original*%
%TF.FileFunction,Legend,Bot*%
%TF.FilePolarity,Positive*%
%FSLAX46Y46*%
G04 Gerber Fmt 4.6, Leading zero omitted, Abs format (unit mm)*
G04 Created by KiCad (PCBNEW (6.0.8)) date 2023-04-21 14:35:49*
%MOMM*%
%LPD*%
G01*
G04 APERTURE LIST*
%ADD10C,0.150000*%
%ADD11C,0.200000*%
%ADD12C,0.120000*%
%ADD13C,0.500000*%
G04 APERTURE END LIST*
D10*
X198748847Y-71335664D02*
X197188947Y-71335664D01*
X210543900Y-60148041D02*
X210543900Y-71324041D01*
X210543900Y-71324041D02*
X212103800Y-71324041D01*
X210543900Y-104521841D02*
X198732900Y-104521841D01*
X198732900Y-104547241D02*
X198745600Y-60173441D01*
X198748847Y-93335664D02*
X197188947Y-93335664D01*
D11*
X127453130Y-56660264D02*
X197196870Y-56660264D01*
X197196870Y-56660264D02*
X197196870Y-108298977D01*
X197196870Y-108298977D02*
X127453130Y-108298977D01*
X127453130Y-108298977D02*
X127453130Y-56660264D01*
D10*
X212103800Y-93320441D02*
X210543900Y-93320441D01*
X210543900Y-93320441D02*
X210543900Y-104521841D01*
X198745600Y-60148041D02*
X210543900Y-60148041D01*
D12*
X207166666Y-85941666D02*
X206466666Y-85941666D01*
X207166666Y-86275000D02*
X206466666Y-86275000D01*
X206966666Y-86508333D01*
X206466666Y-86741666D01*
X207166666Y-86741666D01*
X206533333Y-87041666D02*
X206500000Y-87075000D01*
X206466666Y-87141666D01*
X206466666Y-87308333D01*
X206500000Y-87375000D01*
X206533333Y-87408333D01*
X206600000Y-87441666D01*
X206666666Y-87441666D01*
X206766666Y-87408333D01*
X207166666Y-87008333D01*
X207166666Y-87441666D01*
X207266666Y-75816666D02*
X206566666Y-75816666D01*
X207266666Y-76150000D02*
X206566666Y-76150000D01*
X207066666Y-76383333D01*
X206566666Y-76616666D01*
X207266666Y-76616666D01*
X206566666Y-77083333D02*
X206566666Y-77150000D01*
X206600000Y-77216666D01*
X206633333Y-77250000D01*
X206700000Y-77283333D01*
X206833333Y-77316666D01*
X207000000Y-77316666D01*
X207133333Y-77283333D01*
X207200000Y-77250000D01*
X207233333Y-77216666D01*
X207266666Y-77150000D01*
X207266666Y-77083333D01*
X207233333Y-77016666D01*
X207200000Y-76983333D01*
X207133333Y-76950000D01*
X207000000Y-76916666D01*
X206833333Y-76916666D01*
X206700000Y-76950000D01*
X206633333Y-76983333D01*
X206600000Y-77016666D01*
X206566666Y-77083333D01*
X118008333Y-91658333D02*
X118008333Y-92358333D01*
X118275000Y-92358333D01*
X118341666Y-92325000D01*
X118375000Y-92291666D01*
X118408333Y-92225000D01*
X118408333Y-92125000D01*
X118375000Y-92058333D01*
X118341666Y-92025000D01*
X118275000Y-91991666D01*
X118008333Y-91991666D01*
X118841666Y-92358333D02*
X118975000Y-92358333D01*
X119041666Y-92325000D01*
X119108333Y-92258333D01*
X119141666Y-92125000D01*
X119141666Y-91891666D01*
X119108333Y-91758333D01*
X119041666Y-91691666D01*
X118975000Y-91658333D01*
X118841666Y-91658333D01*
X118775000Y-91691666D01*
X118708333Y-91758333D01*
X118675000Y-91891666D01*
X118675000Y-92125000D01*
X118708333Y-92258333D01*
X118775000Y-92325000D01*
X118841666Y-92358333D01*
X119375000Y-92358333D02*
X119541666Y-91658333D01*
X119675000Y-92158333D01*
X119808333Y-91658333D01*
X119975000Y-92358333D01*
X120241666Y-92025000D02*
X120475000Y-92025000D01*
X120575000Y-91658333D02*
X120241666Y-91658333D01*
X120241666Y-92358333D01*
X120575000Y-92358333D01*
X121275000Y-91658333D02*
X121041666Y-91991666D01*
X120875000Y-91658333D02*
X120875000Y-92358333D01*
X121141666Y-92358333D01*
X121208333Y-92325000D01*
X121241666Y-92291666D01*
X121275000Y-92225000D01*
X121275000Y-92125000D01*
X121241666Y-92058333D01*
X121208333Y-92025000D01*
X121141666Y-91991666D01*
X120875000Y-91991666D01*
D13*
X142699849Y-78766616D02*
X142699849Y-86766616D01*
X144604611Y-86766616D01*
X145747468Y-86385664D01*
X146509373Y-85623759D01*
X146890325Y-84861854D01*
X147271277Y-83338044D01*
X147271277Y-82195187D01*
X146890325Y-80671378D01*
X146509373Y-79909473D01*
X145747468Y-79147568D01*
X144604611Y-78766616D01*
X142699849Y-78766616D01*
X150699849Y-78766616D02*
X150699849Y-84099949D01*
X150699849Y-86766616D02*
X150318897Y-86385664D01*
X150699849Y-86004711D01*
X151080801Y-86385664D01*
X150699849Y-86766616D01*
X150699849Y-86004711D01*
X154128420Y-79147568D02*
X154890325Y-78766616D01*
X156414135Y-78766616D01*
X157176039Y-79147568D01*
X157556992Y-79909473D01*
X157556992Y-80290425D01*
X157176039Y-81052330D01*
X156414135Y-81433283D01*
X155271277Y-81433283D01*
X154509373Y-81814235D01*
X154128420Y-82576140D01*
X154128420Y-82957092D01*
X154509373Y-83718997D01*
X155271277Y-84099949D01*
X156414135Y-84099949D01*
X157176039Y-83718997D01*
X160985563Y-84099949D02*
X160985563Y-76099949D01*
X160985563Y-83718997D02*
X161747468Y-84099949D01*
X163271277Y-84099949D01*
X164033182Y-83718997D01*
X164414135Y-83338044D01*
X164795087Y-82576140D01*
X164795087Y-80290425D01*
X164414135Y-79528521D01*
X164033182Y-79147568D01*
X163271277Y-78766616D01*
X161747468Y-78766616D01*
X160985563Y-79147568D01*
X169366516Y-78766616D02*
X168604611Y-79147568D01*
X168223658Y-79909473D01*
X168223658Y-86766616D01*
X175842706Y-78766616D02*
X175842706Y-82957092D01*
X175461754Y-83718997D01*
X174699849Y-84099949D01*
X173176039Y-84099949D01*
X172414135Y-83718997D01*
X175842706Y-79147568D02*
X175080801Y-78766616D01*
X173176039Y-78766616D01*
X172414135Y-79147568D01*
X172033182Y-79909473D01*
X172033182Y-80671378D01*
X172414135Y-81433283D01*
X173176039Y-81814235D01*
X175080801Y-81814235D01*
X175842706Y-82195187D01*
X178890325Y-84099949D02*
X180795087Y-78766616D01*
X182699849Y-84099949D02*
X180795087Y-78766616D01*
X180033182Y-76861854D01*
X179652230Y-76480902D01*
X178890325Y-76099949D01*
D12*
X207191666Y-80841666D02*
X206491666Y-80841666D01*
X207191666Y-81175000D02*
X206491666Y-81175000D01*
X206991666Y-81408333D01*
X206491666Y-81641666D01*
X207191666Y-81641666D01*
X207191666Y-82341666D02*
X207191666Y-81941666D01*
X207191666Y-82141666D02*
X206491666Y-82141666D01*
X206591666Y-82075000D01*
X206658333Y-82008333D01*
X206691666Y-81941666D01*
X207191666Y-91916666D02*
X206491666Y-91916666D01*
X207191666Y-92250000D02*
X206491666Y-92250000D01*
X206991666Y-92483333D01*
X206491666Y-92716666D01*
X207191666Y-92716666D01*
X206491666Y-92983333D02*
X206491666Y-93416666D01*
X206758333Y-93183333D01*
X206758333Y-93283333D01*
X206791666Y-93350000D01*
X206825000Y-93383333D01*
X206891666Y-93416666D01*
X207058333Y-93416666D01*
X207125000Y-93383333D01*
X207158333Y-93350000D01*
X207191666Y-93283333D01*
X207191666Y-93083333D01*
X207158333Y-93016666D01*
X207125000Y-92983333D01*
X200661754Y-102692806D02*
X200161754Y-102692806D01*
X200161754Y-101907092D02*
X200161754Y-103407092D01*
X200876039Y-103407092D01*
X201947468Y-102692806D02*
X201447468Y-102692806D01*
X201447468Y-101907092D02*
X201447468Y-103407092D01*
X202161754Y-103407092D01*
X203590325Y-102049949D02*
X203518897Y-101978521D01*
X203304611Y-101907092D01*
X203161754Y-101907092D01*
X202947468Y-101978521D01*
X202804611Y-102121378D01*
X202733182Y-102264235D01*
X202661754Y-102549949D01*
X202661754Y-102764235D01*
X202733182Y-103049949D01*
X202804611Y-103192806D01*
X202947468Y-103335664D01*
X203161754Y-103407092D01*
X203304611Y-103407092D01*
X203518897Y-103335664D01*
X203590325Y-103264235D01*
X205304611Y-103478521D02*
X204018897Y-101549949D01*
X206304611Y-102692806D02*
X205804611Y-102692806D01*
X205804611Y-101907092D02*
X205804611Y-103407092D01*
X206518897Y-103407092D01*
X207090325Y-101907092D02*
X207090325Y-103407092D01*
X207661754Y-103407092D01*
X207804611Y-103335664D01*
X207876039Y-103264235D01*
X207947468Y-103121378D01*
X207947468Y-102907092D01*
X207876039Y-102764235D01*
X207804611Y-102692806D01*
X207661754Y-102621378D01*
X207090325Y-102621378D01*
X209447468Y-102049949D02*
X209376039Y-101978521D01*
X209161754Y-101907092D01*
X209018897Y-101907092D01*
X208804611Y-101978521D01*
X208661754Y-102121378D01*
X208590325Y-102264235D01*
X208518897Y-102549949D01*
X208518897Y-102764235D01*
X208590325Y-103049949D01*
X208661754Y-103192806D01*
X208804611Y-103335664D01*
X209018897Y-103407092D01*
X209161754Y-103407092D01*
X209376039Y-103335664D01*
X209447468Y-103264235D01*
D10*
X169463095Y-114942857D02*
X169415476Y-114895238D01*
X169272619Y-114847619D01*
X169177380Y-114847619D01*
X169034523Y-114895238D01*
X168939285Y-114990476D01*
X168891666Y-115085714D01*
X168844047Y-115276190D01*
X168844047Y-115419047D01*
X168891666Y-115609523D01*
X168939285Y-115704761D01*
X169034523Y-115800000D01*
X169177380Y-115847619D01*
X169272619Y-115847619D01*
X169415476Y-115800000D01*
X169463095Y-115752380D01*
X169844047Y-115133333D02*
X170320238Y-115133333D01*
X169748809Y-114847619D02*
X170082142Y-115847619D01*
X170415476Y-114847619D01*
X170748809Y-114847619D02*
X170748809Y-115847619D01*
X171082142Y-115133333D01*
X171415476Y-115847619D01*
X171415476Y-114847619D01*
X171891666Y-115371428D02*
X172225000Y-115371428D01*
X172367857Y-114847619D02*
X171891666Y-114847619D01*
X171891666Y-115847619D01*
X172367857Y-115847619D01*
X173367857Y-114847619D02*
X173034523Y-115323809D01*
X172796428Y-114847619D02*
X172796428Y-115847619D01*
X173177380Y-115847619D01*
X173272619Y-115800000D01*
X173320238Y-115752380D01*
X173367857Y-115657142D01*
X173367857Y-115514285D01*
X173320238Y-115419047D01*
X173272619Y-115371428D01*
X173177380Y-115323809D01*
X172796428Y-115323809D01*
X173748809Y-115133333D02*
X174225000Y-115133333D01*
X173653571Y-114847619D02*
X173986904Y-115847619D01*
X174320238Y-114847619D01*
X175748809Y-115371428D02*
X175415476Y-115371428D01*
X175415476Y-114847619D02*
X175415476Y-115847619D01*
X175891666Y-115847619D01*
X176225000Y-115133333D02*
X176701190Y-115133333D01*
X176129761Y-114847619D02*
X176463095Y-115847619D01*
X176796428Y-114847619D01*
X177701190Y-114942857D02*
X177653571Y-114895238D01*
X177510714Y-114847619D01*
X177415476Y-114847619D01*
X177272619Y-114895238D01*
X177177380Y-114990476D01*
X177129761Y-115085714D01*
X177082142Y-115276190D01*
X177082142Y-115419047D01*
X177129761Y-115609523D01*
X177177380Y-115704761D01*
X177272619Y-115800000D01*
X177415476Y-115847619D01*
X177510714Y-115847619D01*
X177653571Y-115800000D01*
X177701190Y-115752380D01*
X178129761Y-114847619D02*
X178129761Y-115847619D01*
X178605952Y-114847619D02*
X178605952Y-115847619D01*
X179177380Y-114847619D01*
X179177380Y-115847619D01*
X180177380Y-115800000D02*
X180082142Y-115847619D01*
X179939285Y-115847619D01*
X179796428Y-115800000D01*
X179701190Y-115704761D01*
X179653571Y-115609523D01*
X179605952Y-115419047D01*
X179605952Y-115276190D01*
X179653571Y-115085714D01*
X179701190Y-114990476D01*
X179796428Y-114895238D01*
X179939285Y-114847619D01*
X180034523Y-114847619D01*
X180177380Y-114895238D01*
X180225000Y-114942857D01*
X180225000Y-115276190D01*
X180034523Y-115276190D01*
X181367857Y-115133333D02*
X181844047Y-115133333D01*
X181272619Y-114847619D02*
X181605952Y-115847619D01*
X181939285Y-114847619D01*
X182177380Y-115847619D02*
X182415476Y-114847619D01*
X182605952Y-115561904D01*
X182796428Y-114847619D01*
X183034523Y-115847619D01*
X183367857Y-115133333D02*
X183844047Y-115133333D01*
X183272619Y-114847619D02*
X183605952Y-115847619D01*
X183939285Y-114847619D01*
X184463095Y-115323809D02*
X184463095Y-114847619D01*
X184129761Y-115847619D02*
X184463095Y-115323809D01*
X184796428Y-115847619D01*
X186225000Y-115371428D02*
X185891666Y-115371428D01*
X185891666Y-114847619D02*
X185891666Y-115847619D01*
X186367857Y-115847619D01*
X187320238Y-114847619D02*
X186986904Y-115323809D01*
X186748809Y-114847619D02*
X186748809Y-115847619D01*
X187129761Y-115847619D01*
X187225000Y-115800000D01*
X187272619Y-115752380D01*
X187320238Y-115657142D01*
X187320238Y-115514285D01*
X187272619Y-115419047D01*
X187225000Y-115371428D01*
X187129761Y-115323809D01*
X186748809Y-115323809D01*
X187939285Y-115847619D02*
X188129761Y-115847619D01*
X188225000Y-115800000D01*
X188320238Y-115704761D01*
X188367857Y-115514285D01*
X188367857Y-115180952D01*
X188320238Y-114990476D01*
X188225000Y-114895238D01*
X188129761Y-114847619D01*
X187939285Y-114847619D01*
X187844047Y-114895238D01*
X187748809Y-114990476D01*
X187701190Y-115180952D01*
X187701190Y-115514285D01*
X187748809Y-115704761D01*
X187844047Y-115800000D01*
X187939285Y-115847619D01*
X188796428Y-114847619D02*
X188796428Y-115847619D01*
X189129761Y-115133333D01*
X189463095Y-115847619D01*
X189463095Y-114847619D01*
X190701190Y-115847619D02*
X190701190Y-115038095D01*
X190748809Y-114942857D01*
X190796428Y-114895238D01*
X190891666Y-114847619D01*
X191082142Y-114847619D01*
X191177380Y-114895238D01*
X191225000Y-114942857D01*
X191272619Y-115038095D01*
X191272619Y-115847619D01*
X191701190Y-114895238D02*
X191844047Y-114847619D01*
X192082142Y-114847619D01*
X192177380Y-114895238D01*
X192225000Y-114942857D01*
X192272619Y-115038095D01*
X192272619Y-115133333D01*
X192225000Y-115228571D01*
X192177380Y-115276190D01*
X192082142Y-115323809D01*
X191891666Y-115371428D01*
X191796428Y-115419047D01*
X191748809Y-115466666D01*
X191701190Y-115561904D01*
X191701190Y-115657142D01*
X191748809Y-115752380D01*
X191796428Y-115800000D01*
X191891666Y-115847619D01*
X192129761Y-115847619D01*
X192272619Y-115800000D01*
X192701190Y-115371428D02*
X193034523Y-115371428D01*
X193177380Y-114847619D02*
X192701190Y-114847619D01*
X192701190Y-115847619D01*
X193177380Y-115847619D01*
X194177380Y-114847619D02*
X193844047Y-115323809D01*
X193605952Y-114847619D02*
X193605952Y-115847619D01*
X193986904Y-115847619D01*
X194082142Y-115800000D01*
X194129761Y-115752380D01*
X194177380Y-115657142D01*
X194177380Y-115514285D01*
X194129761Y-115419047D01*
X194082142Y-115371428D01*
X193986904Y-115323809D01*
X193605952Y-115323809D01*
X194605952Y-114942857D02*
X194653571Y-114895238D01*
X194605952Y-114847619D01*
X194558333Y-114895238D01*
X194605952Y-114942857D01*
X194605952Y-114847619D01*
X194605952Y-115228571D02*
X194558333Y-115800000D01*
X194605952Y-115847619D01*
X194653571Y-115800000D01*
X194605952Y-115228571D01*
X194605952Y-115847619D01*
X195082142Y-114942857D02*
X195129761Y-114895238D01*
X195082142Y-114847619D01*
X195034523Y-114895238D01*
X195082142Y-114942857D01*
X195082142Y-114847619D01*
X195082142Y-115228571D02*
X195034523Y-115800000D01*
X195082142Y-115847619D01*
X195129761Y-115800000D01*
X195082142Y-115228571D01*
X195082142Y-115847619D01*
X195558333Y-114942857D02*
X195605952Y-114895238D01*
X195558333Y-114847619D01*
X195510714Y-114895238D01*
X195558333Y-114942857D01*
X195558333Y-114847619D01*
X195558333Y-115228571D02*
X195510714Y-115800000D01*
X195558333Y-115847619D01*
X195605952Y-115800000D01*
X195558333Y-115228571D01*
X195558333Y-115847619D01*
D12*
%TO.C,SW7*%
X118666666Y-97741666D02*
X118766666Y-97708333D01*
X118933333Y-97708333D01*
X119000000Y-97741666D01*
X119033333Y-97775000D01*
X119066666Y-97841666D01*
X119066666Y-97908333D01*
X119033333Y-97975000D01*
X119000000Y-98008333D01*
X118933333Y-98041666D01*
X118800000Y-98075000D01*
X118733333Y-98108333D01*
X118700000Y-98141666D01*
X118666666Y-98208333D01*
X118666666Y-98275000D01*
X118700000Y-98341666D01*
X118733333Y-98375000D01*
X118800000Y-98408333D01*
X118966666Y-98408333D01*
X119066666Y-98375000D01*
X119300000Y-98408333D02*
X119466666Y-97708333D01*
X119600000Y-98208333D01*
X119733333Y-97708333D01*
X119900000Y-98408333D01*
X120100000Y-98408333D02*
X120566666Y-98408333D01*
X120266666Y-97708333D01*
%TO.C,JP3*%
X209800000Y-86616666D02*
X210200000Y-86616666D01*
X210000000Y-86616666D02*
X210000000Y-85916666D01*
X210066666Y-86016666D01*
X210133333Y-86083333D01*
X210200000Y-86116666D01*
X210083333Y-88666666D02*
X210016666Y-88666666D01*
X209950000Y-88700000D01*
X209916666Y-88733333D01*
X209883333Y-88800000D01*
X209850000Y-88933333D01*
X209850000Y-89100000D01*
X209883333Y-89233333D01*
X209916666Y-89300000D01*
X209950000Y-89333333D01*
X210016666Y-89366666D01*
X210083333Y-89366666D01*
X210150000Y-89333333D01*
X210183333Y-89300000D01*
X210216666Y-89233333D01*
X210250000Y-89100000D01*
X210250000Y-88933333D01*
X210216666Y-88800000D01*
X210183333Y-88733333D01*
X210150000Y-88700000D01*
X210083333Y-88666666D01*
%TO.C,C4*%
X185375000Y-52533333D02*
X185408333Y-52500000D01*
X185441666Y-52400000D01*
X185441666Y-52333333D01*
X185408333Y-52233333D01*
X185341666Y-52166666D01*
X185275000Y-52133333D01*
X185141666Y-52100000D01*
X185041666Y-52100000D01*
X184908333Y-52133333D01*
X184841666Y-52166666D01*
X184775000Y-52233333D01*
X184741666Y-52333333D01*
X184741666Y-52400000D01*
X184775000Y-52500000D01*
X184808333Y-52533333D01*
X184975000Y-53133333D02*
X185441666Y-53133333D01*
X184708333Y-52966666D02*
X185208333Y-52800000D01*
X185208333Y-53233333D01*
%TO.C,JP2*%
X210058333Y-83941666D02*
X209991666Y-83941666D01*
X209925000Y-83975000D01*
X209891666Y-84008333D01*
X209858333Y-84075000D01*
X209825000Y-84208333D01*
X209825000Y-84375000D01*
X209858333Y-84508333D01*
X209891666Y-84575000D01*
X209925000Y-84608333D01*
X209991666Y-84641666D01*
X210058333Y-84641666D01*
X210125000Y-84608333D01*
X210158333Y-84575000D01*
X210191666Y-84508333D01*
X210225000Y-84375000D01*
X210225000Y-84208333D01*
X210191666Y-84075000D01*
X210158333Y-84008333D01*
X210125000Y-83975000D01*
X210058333Y-83941666D01*
X209750000Y-81941666D02*
X210150000Y-81941666D01*
X209950000Y-81941666D02*
X209950000Y-81241666D01*
X210016666Y-81341666D01*
X210083333Y-81408333D01*
X210150000Y-81441666D01*
%TO.C,JP1*%
X209800000Y-77166666D02*
X210200000Y-77166666D01*
X210000000Y-77166666D02*
X210000000Y-76466666D01*
X210066666Y-76566666D01*
X210133333Y-76633333D01*
X210200000Y-76666666D01*
X210083333Y-79166666D02*
X210016666Y-79166666D01*
X209950000Y-79200000D01*
X209916666Y-79233333D01*
X209883333Y-79300000D01*
X209850000Y-79433333D01*
X209850000Y-79600000D01*
X209883333Y-79733333D01*
X209916666Y-79800000D01*
X209950000Y-79833333D01*
X210016666Y-79866666D01*
X210083333Y-79866666D01*
X210150000Y-79833333D01*
X210183333Y-79800000D01*
X210216666Y-79733333D01*
X210250000Y-79600000D01*
X210250000Y-79433333D01*
X210216666Y-79300000D01*
X210183333Y-79233333D01*
X210150000Y-79200000D01*
X210083333Y-79166666D01*
%TO.C,SW5*%
X176757920Y-55376930D02*
X176857920Y-55343597D01*
X177024587Y-55343597D01*
X177091254Y-55376930D01*
X177124587Y-55410264D01*
X177157920Y-55476930D01*
X177157920Y-55543597D01*
X177124587Y-55610264D01*
X177091254Y-55643597D01*
X177024587Y-55676930D01*
X176891254Y-55710264D01*
X176824587Y-55743597D01*
X176791254Y-55776930D01*
X176757920Y-55843597D01*
X176757920Y-55910264D01*
X176791254Y-55976930D01*
X176824587Y-56010264D01*
X176891254Y-56043597D01*
X177057920Y-56043597D01*
X177157920Y-56010264D01*
X177391254Y-56043597D02*
X177557920Y-55343597D01*
X177691254Y-55843597D01*
X177824587Y-55343597D01*
X177991254Y-56043597D01*
X178591254Y-56043597D02*
X178257920Y-56043597D01*
X178224587Y-55710264D01*
X178257920Y-55743597D01*
X178324587Y-55776930D01*
X178491254Y-55776930D01*
X178557920Y-55743597D01*
X178591254Y-55710264D01*
X178624587Y-55643597D01*
X178624587Y-55476930D01*
X178591254Y-55410264D01*
X178557920Y-55376930D01*
X178491254Y-55343597D01*
X178324587Y-55343597D01*
X178257920Y-55376930D01*
X178224587Y-55410264D01*
%TO.C,SW1*%
X191476817Y-55426930D02*
X191576817Y-55393597D01*
X191743484Y-55393597D01*
X191810151Y-55426930D01*
X191843484Y-55460264D01*
X191876817Y-55526930D01*
X191876817Y-55593597D01*
X191843484Y-55660264D01*
X191810151Y-55693597D01*
X191743484Y-55726930D01*
X191610151Y-55760264D01*
X191543484Y-55793597D01*
X191510151Y-55826930D01*
X191476817Y-55893597D01*
X191476817Y-55960264D01*
X191510151Y-56026930D01*
X191543484Y-56060264D01*
X191610151Y-56093597D01*
X191776817Y-56093597D01*
X191876817Y-56060264D01*
X192110151Y-56093597D02*
X192276817Y-55393597D01*
X192410151Y-55893597D01*
X192543484Y-55393597D01*
X192710151Y-56093597D01*
X193343484Y-55393597D02*
X192943484Y-55393597D01*
X193143484Y-55393597D02*
X193143484Y-56093597D01*
X193076817Y-55993597D01*
X193010151Y-55926930D01*
X192943484Y-55893597D01*
%TO.C,SW6*%
X136066666Y-55391666D02*
X136166666Y-55358333D01*
X136333333Y-55358333D01*
X136400000Y-55391666D01*
X136433333Y-55425000D01*
X136466666Y-55491666D01*
X136466666Y-55558333D01*
X136433333Y-55625000D01*
X136400000Y-55658333D01*
X136333333Y-55691666D01*
X136200000Y-55725000D01*
X136133333Y-55758333D01*
X136100000Y-55791666D01*
X136066666Y-55858333D01*
X136066666Y-55925000D01*
X136100000Y-55991666D01*
X136133333Y-56025000D01*
X136200000Y-56058333D01*
X136366666Y-56058333D01*
X136466666Y-56025000D01*
X136700000Y-56058333D02*
X136866666Y-55358333D01*
X137000000Y-55858333D01*
X137133333Y-55358333D01*
X137300000Y-56058333D01*
X137866666Y-56058333D02*
X137733333Y-56058333D01*
X137666666Y-56025000D01*
X137633333Y-55991666D01*
X137566666Y-55891666D01*
X137533333Y-55758333D01*
X137533333Y-55491666D01*
X137566666Y-55425000D01*
X137600000Y-55391666D01*
X137666666Y-55358333D01*
X137800000Y-55358333D01*
X137866666Y-55391666D01*
X137900000Y-55425000D01*
X137933333Y-55491666D01*
X137933333Y-55658333D01*
X137900000Y-55725000D01*
X137866666Y-55758333D01*
X137800000Y-55791666D01*
X137666666Y-55791666D01*
X137600000Y-55758333D01*
X137566666Y-55725000D01*
X137533333Y-55658333D01*
%TO.C,C8*%
X170625000Y-51433333D02*
X170658333Y-51400000D01*
X170691666Y-51300000D01*
X170691666Y-51233333D01*
X170658333Y-51133333D01*
X170591666Y-51066666D01*
X170525000Y-51033333D01*
X170391666Y-51000000D01*
X170291666Y-51000000D01*
X170158333Y-51033333D01*
X170091666Y-51066666D01*
X170025000Y-51133333D01*
X169991666Y-51233333D01*
X169991666Y-51300000D01*
X170025000Y-51400000D01*
X170058333Y-51433333D01*
X170291666Y-51833333D02*
X170258333Y-51766666D01*
X170225000Y-51733333D01*
X170158333Y-51700000D01*
X170125000Y-51700000D01*
X170058333Y-51733333D01*
X170025000Y-51766666D01*
X169991666Y-51833333D01*
X169991666Y-51966666D01*
X170025000Y-52033333D01*
X170058333Y-52066666D01*
X170125000Y-52100000D01*
X170158333Y-52100000D01*
X170225000Y-52066666D01*
X170258333Y-52033333D01*
X170291666Y-51966666D01*
X170291666Y-51833333D01*
X170325000Y-51766666D01*
X170358333Y-51733333D01*
X170425000Y-51700000D01*
X170558333Y-51700000D01*
X170625000Y-51733333D01*
X170658333Y-51766666D01*
X170691666Y-51833333D01*
X170691666Y-51966666D01*
X170658333Y-52033333D01*
X170625000Y-52066666D01*
X170558333Y-52100000D01*
X170425000Y-52100000D01*
X170358333Y-52066666D01*
X170325000Y-52033333D01*
X170291666Y-51966666D01*
%TO.C,C9*%
X129750000Y-52583333D02*
X129783333Y-52550000D01*
X129816666Y-52450000D01*
X129816666Y-52383333D01*
X129783333Y-52283333D01*
X129716666Y-52216666D01*
X129650000Y-52183333D01*
X129516666Y-52150000D01*
X129416666Y-52150000D01*
X129283333Y-52183333D01*
X129216666Y-52216666D01*
X129150000Y-52283333D01*
X129116666Y-52383333D01*
X129116666Y-52450000D01*
X129150000Y-52550000D01*
X129183333Y-52583333D01*
X129816666Y-52916666D02*
X129816666Y-53050000D01*
X129783333Y-53116666D01*
X129750000Y-53150000D01*
X129650000Y-53216666D01*
X129516666Y-53250000D01*
X129250000Y-53250000D01*
X129183333Y-53216666D01*
X129150000Y-53183333D01*
X129116666Y-53116666D01*
X129116666Y-52983333D01*
X129150000Y-52916666D01*
X129183333Y-52883333D01*
X129250000Y-52850000D01*
X129416666Y-52850000D01*
X129483333Y-52883333D01*
X129516666Y-52916666D01*
X129550000Y-52983333D01*
X129550000Y-53116666D01*
X129516666Y-53183333D01*
X129483333Y-53216666D01*
X129416666Y-53250000D01*
%TO.C,JP4*%
X209875000Y-91566666D02*
X210275000Y-91566666D01*
X210075000Y-91566666D02*
X210075000Y-90866666D01*
X210141666Y-90966666D01*
X210208333Y-91033333D01*
X210275000Y-91066666D01*
X210058333Y-93541666D02*
X209991666Y-93541666D01*
X209925000Y-93575000D01*
X209891666Y-93608333D01*
X209858333Y-93675000D01*
X209825000Y-93808333D01*
X209825000Y-93975000D01*
X209858333Y-94108333D01*
X209891666Y-94175000D01*
X209925000Y-94208333D01*
X209991666Y-94241666D01*
X210058333Y-94241666D01*
X210125000Y-94208333D01*
X210158333Y-94175000D01*
X210191666Y-94108333D01*
X210225000Y-93975000D01*
X210225000Y-93808333D01*
X210191666Y-93675000D01*
X210158333Y-93608333D01*
X210125000Y-93575000D01*
X210058333Y-93541666D01*
%TO.C,C5*%
X155925000Y-51858333D02*
X155958333Y-51825000D01*
X155991666Y-51725000D01*
X155991666Y-51658333D01*
X155958333Y-51558333D01*
X155891666Y-51491666D01*
X155825000Y-51458333D01*
X155691666Y-51425000D01*
X155591666Y-51425000D01*
X155458333Y-51458333D01*
X155391666Y-51491666D01*
X155325000Y-51558333D01*
X155291666Y-51658333D01*
X155291666Y-51725000D01*
X155325000Y-51825000D01*
X155358333Y-51858333D01*
X155291666Y-52491666D02*
X155291666Y-52158333D01*
X155625000Y-52125000D01*
X155591666Y-52158333D01*
X155558333Y-52225000D01*
X155558333Y-52391666D01*
X155591666Y-52458333D01*
X155625000Y-52491666D01*
X155691666Y-52525000D01*
X155858333Y-52525000D01*
X155925000Y-52491666D01*
X155958333Y-52458333D01*
X155991666Y-52391666D01*
X155991666Y-52225000D01*
X155958333Y-52158333D01*
X155925000Y-52125000D01*
%TO.C,SW2*%
X162407920Y-55491666D02*
X162507920Y-55458333D01*
X162674587Y-55458333D01*
X162741254Y-55491666D01*
X162774587Y-55525000D01*
X162807920Y-55591666D01*
X162807920Y-55658333D01*
X162774587Y-55725000D01*
X162741254Y-55758333D01*
X162674587Y-55791666D01*
X162541254Y-55825000D01*
X162474587Y-55858333D01*
X162441254Y-55891666D01*
X162407920Y-55958333D01*
X162407920Y-56025000D01*
X162441254Y-56091666D01*
X162474587Y-56125000D01*
X162541254Y-56158333D01*
X162707920Y-56158333D01*
X162807920Y-56125000D01*
X163041254Y-56158333D02*
X163207920Y-55458333D01*
X163341254Y-55958333D01*
X163474587Y-55458333D01*
X163641254Y-56158333D01*
X163874587Y-56091666D02*
X163907920Y-56125000D01*
X163974587Y-56158333D01*
X164141254Y-56158333D01*
X164207920Y-56125000D01*
X164241254Y-56091666D01*
X164274587Y-56025000D01*
X164274587Y-55958333D01*
X164241254Y-55858333D01*
X163841254Y-55458333D01*
X164274587Y-55458333D01*
%TO.C,SW7*%
X117230000Y-97370000D02*
X117230000Y-96970000D01*
X121970000Y-92630000D02*
X117230000Y-92630000D01*
X121970000Y-97370000D02*
X117230000Y-97370000D01*
X121970000Y-97370000D02*
X121970000Y-96970000D01*
X117230000Y-92630000D02*
X117230000Y-93030000D01*
X121970000Y-96030000D02*
X121970000Y-93970000D01*
X121970000Y-92630000D02*
X121970000Y-93030000D01*
X117230000Y-96030000D02*
X117230000Y-93970000D01*
D10*
%TO.C,JP3*%
X209550000Y-89075000D02*
X209550000Y-86275000D01*
X208250000Y-89725000D02*
X208850000Y-89725000D01*
X208850000Y-85625000D02*
X208250000Y-85625000D01*
X207550000Y-86275000D02*
X207550000Y-89075000D01*
X209550000Y-86325000D02*
G75*
G03*
X208850000Y-85625000I-699999J1D01*
G01*
X207550000Y-89025000D02*
G75*
G03*
X208250000Y-89725000I700000J0D01*
G01*
X208250000Y-85625000D02*
G75*
G03*
X207550000Y-86325000I-1J-699999D01*
G01*
X208850000Y-89725000D02*
G75*
G03*
X209550000Y-89025000I0J700000D01*
G01*
%TO.C,C4*%
X187303151Y-52399012D02*
X187303151Y-52921516D01*
X185833151Y-52399012D02*
X185833151Y-52921516D01*
%TO.C,JP2*%
X208250000Y-84925000D02*
X208850000Y-84925000D01*
X209550000Y-84275000D02*
X209550000Y-81475000D01*
X207550000Y-81475000D02*
X207550000Y-84275000D01*
X208850000Y-80825000D02*
X208250000Y-80825000D01*
X208850000Y-84925000D02*
G75*
G03*
X209550000Y-84225000I0J700000D01*
G01*
X207550000Y-84225000D02*
G75*
G03*
X208250000Y-84925000I700000J0D01*
G01*
X209550000Y-81525000D02*
G75*
G03*
X208850000Y-80825000I-699999J1D01*
G01*
X208250000Y-80825000D02*
G75*
G03*
X207550000Y-81525000I-1J-699999D01*
G01*
%TO.C,JP1*%
X208250000Y-80125000D02*
X208850000Y-80125000D01*
X209550000Y-79475000D02*
X209550000Y-76675000D01*
X207550000Y-76675000D02*
X207550000Y-79475000D01*
X208850000Y-76025000D02*
X208250000Y-76025000D01*
X208250000Y-76025000D02*
G75*
G03*
X207550000Y-76725000I-1J-699999D01*
G01*
X209550000Y-76725000D02*
G75*
G03*
X208850000Y-76025000I-699999J1D01*
G01*
X208850000Y-80125000D02*
G75*
G03*
X209550000Y-79425000I0J700000D01*
G01*
X207550000Y-79425000D02*
G75*
G03*
X208250000Y-80125000I700000J0D01*
G01*
%TO.C,SW5*%
X180061254Y-50340264D02*
X175321254Y-50340264D01*
X175321254Y-53740264D02*
X175321254Y-51680264D01*
X175321254Y-55080264D02*
X175321254Y-54680264D01*
X180061254Y-50340264D02*
X180061254Y-50740264D01*
X180061254Y-53740264D02*
X180061254Y-51680264D01*
X180061254Y-55080264D02*
X175321254Y-55080264D01*
X180061254Y-55080264D02*
X180061254Y-54680264D01*
X175321254Y-50340264D02*
X175321254Y-50740264D01*
%TO.C,SW1*%
X194780151Y-55055664D02*
X190040151Y-55055664D01*
X190040151Y-53715664D02*
X190040151Y-51655664D01*
X194780151Y-53715664D02*
X194780151Y-51655664D01*
X194780151Y-55055664D02*
X194780151Y-54655664D01*
X190040151Y-55055664D02*
X190040151Y-54655664D01*
X194780151Y-50315664D02*
X190040151Y-50315664D01*
X190040151Y-50315664D02*
X190040151Y-50715664D01*
X194780151Y-50315664D02*
X194780151Y-50715664D01*
%TO.C,SW6*%
X139370000Y-53740264D02*
X139370000Y-51680264D01*
X134630000Y-50340264D02*
X134630000Y-50740264D01*
X134630000Y-53740264D02*
X134630000Y-51680264D01*
X134630000Y-55080264D02*
X134630000Y-54680264D01*
X139370000Y-50340264D02*
X139370000Y-50740264D01*
X139370000Y-55080264D02*
X139370000Y-54680264D01*
X139370000Y-55080264D02*
X134630000Y-55080264D01*
X139370000Y-50340264D02*
X134630000Y-50340264D01*
%TO.C,C8*%
X172526254Y-52449012D02*
X172526254Y-52971516D01*
X171056254Y-52449012D02*
X171056254Y-52971516D01*
%TO.C,C9*%
X131635000Y-52449012D02*
X131635000Y-52971516D01*
X130165000Y-52449012D02*
X130165000Y-52971516D01*
%TO.C,JP4*%
X209550000Y-93875000D02*
X209550000Y-91075000D01*
X208250000Y-94525000D02*
X208850000Y-94525000D01*
X207550000Y-91075000D02*
X207550000Y-93875000D01*
X208850000Y-90425000D02*
X208250000Y-90425000D01*
X208850000Y-94525000D02*
G75*
G03*
X209550000Y-93825000I0J700000D01*
G01*
X208250000Y-90425000D02*
G75*
G03*
X207550000Y-91125000I-1J-699999D01*
G01*
X207550000Y-93825000D02*
G75*
G03*
X208250000Y-94525000I700000J0D01*
G01*
X209550000Y-91125000D02*
G75*
G03*
X208850000Y-90425000I-699999J1D01*
G01*
%TO.C,C5*%
X157951683Y-52463748D02*
X157951683Y-52986252D01*
X156481683Y-52463748D02*
X156481683Y-52986252D01*
%TO.C,SW2*%
X160971254Y-53755000D02*
X160971254Y-51695000D01*
X160971254Y-50355000D02*
X160971254Y-50755000D01*
X165711254Y-50355000D02*
X160971254Y-50355000D01*
X165711254Y-55095000D02*
X160971254Y-55095000D01*
X160971254Y-55095000D02*
X160971254Y-54695000D01*
X165711254Y-55095000D02*
X165711254Y-54695000D01*
X165711254Y-53755000D02*
X165711254Y-51695000D01*
X165711254Y-50355000D02*
X165711254Y-50755000D01*
%TD*%
M02*
