%TF.GenerationSoftware,KiCad,Pcbnew,(6.0.8)*%
%TF.CreationDate,2023-04-21T14:35:49+02:00*%
%TF.ProjectId,Thermometer_IR_v2,54686572-6d6f-46d6-9574-65725f49525f,rev?*%
%TF.SameCoordinates,Original*%
%TF.FileFunction,Soldermask,Bot*%
%TF.FilePolarity,Negative*%
%FSLAX46Y46*%
G04 Gerber Fmt 4.6, Leading zero omitted, Abs format (unit mm)*
G04 Created by KiCad (PCBNEW (6.0.8)) date 2023-04-21 14:35:49*
%MOMM*%
%LPD*%
G01*
G04 APERTURE LIST*
G04 Aperture macros list*
%AMRoundRect*
0 Rectangle with rounded corners*
0 $1 Rounding radius*
0 $2 $3 $4 $5 $6 $7 $8 $9 X,Y pos of 4 corners*
0 Add a 4 corners polygon primitive as box body*
4,1,4,$2,$3,$4,$5,$6,$7,$8,$9,$2,$3,0*
0 Add four circle primitives for the rounded corners*
1,1,$1+$1,$2,$3*
1,1,$1+$1,$4,$5*
1,1,$1+$1,$6,$7*
1,1,$1+$1,$8,$9*
0 Add four rect primitives between the rounded corners*
20,1,$1+$1,$2,$3,$4,$5,0*
20,1,$1+$1,$4,$5,$6,$7,0*
20,1,$1+$1,$6,$7,$8,$9,0*
20,1,$1+$1,$8,$9,$2,$3,0*%
%AMFreePoly0*
4,1,22,0.550000,-0.750000,0.000000,-0.750000,0.000000,-0.745033,-0.079941,-0.743568,-0.215256,-0.701293,-0.333266,-0.622738,-0.424486,-0.514219,-0.481581,-0.384460,-0.499164,-0.250000,-0.500000,-0.250000,-0.500000,0.250000,-0.499164,0.250000,-0.499963,0.256109,-0.478152,0.396186,-0.417904,0.524511,-0.324060,0.630769,-0.204165,0.706417,-0.067858,0.745374,0.000000,0.744959,0.000000,0.750000,
0.550000,0.750000,0.550000,-0.750000,0.550000,-0.750000,$1*%
%AMFreePoly1*
4,1,20,0.000000,0.744959,0.073905,0.744508,0.209726,0.703889,0.328688,0.626782,0.421226,0.519385,0.479903,0.390333,0.500000,0.250000,0.500000,-0.250000,0.499851,-0.262216,0.476331,-0.402017,0.414519,-0.529596,0.319384,-0.634700,0.198574,-0.708877,0.061801,-0.746166,0.000000,-0.745033,0.000000,-0.750000,-0.550000,-0.750000,-0.550000,0.750000,0.000000,0.750000,0.000000,0.744959,
0.000000,0.744959,$1*%
G04 Aperture macros list end*
%ADD10R,1.700000X1.700000*%
%ADD11O,1.700000X1.700000*%
%ADD12C,0.800000*%
%ADD13C,6.000000*%
%ADD14O,1.600000X1.200000*%
%ADD15O,1.200000X1.200000*%
%ADD16R,3.000000X3.000000*%
%ADD17C,3.000000*%
%ADD18R,1.050000X1.500000*%
%ADD19O,1.050000X1.500000*%
%ADD20C,2.000000*%
%ADD21O,1.500000X2.000000*%
%ADD22R,1.600000X1.400000*%
%ADD23FreePoly0,270.000000*%
%ADD24R,1.500000X1.000000*%
%ADD25FreePoly1,270.000000*%
%ADD26RoundRect,0.250000X-0.475000X0.250000X-0.475000X-0.250000X0.475000X-0.250000X0.475000X0.250000X0*%
G04 APERTURE END LIST*
D10*
%TO.C,J2*%
X170800000Y-109735264D03*
D11*
X170800000Y-112275264D03*
X173340000Y-109735264D03*
X173340000Y-112275264D03*
X175880000Y-109735264D03*
X175880000Y-112275264D03*
X178420000Y-109735264D03*
X178420000Y-112275264D03*
X180960000Y-109735264D03*
X180960000Y-112275264D03*
X183500000Y-109735264D03*
X183500000Y-112275264D03*
X186040000Y-109735264D03*
X186040000Y-112275264D03*
X188580000Y-109735264D03*
X188580000Y-112275264D03*
X191120000Y-109735264D03*
X191120000Y-112275264D03*
X193660000Y-109735264D03*
X193660000Y-112275264D03*
%TD*%
D12*
%TO.C,H2*%
X115384010Y-49309010D03*
X116975000Y-48650000D03*
X118565990Y-52490990D03*
X116975000Y-53150000D03*
X115384010Y-52490990D03*
X114725000Y-50900000D03*
X119225000Y-50900000D03*
D13*
X116975000Y-50900000D03*
D12*
X118565990Y-49309010D03*
%TD*%
D14*
%TO.C,U3*%
X142699586Y-113724965D03*
D15*
X143969586Y-114994965D03*
X145239586Y-113724965D03*
X143969586Y-112454965D03*
%TD*%
D16*
%TO.C,J4*%
X117000000Y-81490000D03*
D17*
X117000000Y-76410000D03*
%TD*%
D10*
%TO.C,J3*%
X175775000Y-99450264D03*
D11*
X178315000Y-99450264D03*
%TD*%
D18*
%TO.C,U2*%
X179545000Y-64390000D03*
D19*
X178275000Y-64390000D03*
X177005000Y-64390000D03*
%TD*%
D20*
%TO.C,J1*%
X120846412Y-63288188D03*
D21*
X116446412Y-63288188D03*
%TD*%
D12*
%TO.C,H1*%
X208125000Y-117550000D03*
X209715990Y-113709010D03*
X208125000Y-113050000D03*
X206534010Y-116890990D03*
X205875000Y-115300000D03*
X210375000Y-115300000D03*
X206534010Y-113709010D03*
X209715990Y-116890990D03*
D13*
X208125000Y-115300000D03*
%TD*%
%TO.C,H4*%
X116975000Y-115300000D03*
D12*
X119225000Y-115300000D03*
X116975000Y-113050000D03*
X114725000Y-115300000D03*
X115384010Y-116890990D03*
X116975000Y-117550000D03*
X115384010Y-113709010D03*
X118565990Y-113709010D03*
X118565990Y-116890990D03*
%TD*%
%TO.C,H3*%
X206534010Y-52490990D03*
X205875000Y-50900000D03*
X208125000Y-53150000D03*
D13*
X208125000Y-50900000D03*
D12*
X208125000Y-48650000D03*
X209715990Y-49309010D03*
X210375000Y-50900000D03*
X206534010Y-49309010D03*
X209715990Y-52490990D03*
%TD*%
D22*
%TO.C,SW7*%
X123200000Y-93500000D03*
X116000000Y-93500000D03*
X116000000Y-96500000D03*
X123200000Y-96500000D03*
%TD*%
D23*
%TO.C,JP3*%
X208550000Y-86375000D03*
D24*
X208550000Y-87675000D03*
D25*
X208550000Y-88975000D03*
%TD*%
D26*
%TO.C,C4*%
X186568151Y-51710264D03*
X186568151Y-53610264D03*
%TD*%
D23*
%TO.C,JP2*%
X208550000Y-81575000D03*
D24*
X208550000Y-82875000D03*
D25*
X208550000Y-84175000D03*
%TD*%
D23*
%TO.C,JP1*%
X208550000Y-76775000D03*
D24*
X208550000Y-78075000D03*
D25*
X208550000Y-79375000D03*
%TD*%
D22*
%TO.C,SW5*%
X181291254Y-51210264D03*
X174091254Y-51210264D03*
X174091254Y-54210264D03*
X181291254Y-54210264D03*
%TD*%
%TO.C,SW1*%
X188810151Y-51185664D03*
X196010151Y-51185664D03*
X196010151Y-54185664D03*
X188810151Y-54185664D03*
%TD*%
%TO.C,SW6*%
X140600000Y-51210264D03*
X133400000Y-51210264D03*
X133400000Y-54210264D03*
X140600000Y-54210264D03*
%TD*%
D26*
%TO.C,C8*%
X171791254Y-51760264D03*
X171791254Y-53660264D03*
%TD*%
%TO.C,C9*%
X130900000Y-51760264D03*
X130900000Y-53660264D03*
%TD*%
D23*
%TO.C,JP4*%
X208550000Y-91175000D03*
D24*
X208550000Y-92475000D03*
D25*
X208550000Y-93775000D03*
%TD*%
D26*
%TO.C,C5*%
X157216683Y-51775000D03*
X157216683Y-53675000D03*
%TD*%
D22*
%TO.C,SW2*%
X166941254Y-51225000D03*
X159741254Y-51225000D03*
X159741254Y-54225000D03*
X166941254Y-54225000D03*
%TD*%
M02*
