M48
; DRILL file {KiCad (6.0.8)} date Fri Apr 21 14:35:56 2023
; FORMAT={-:-/ absolute / metric / decimal}
; #@! TF.CreationDate,2023-04-21T14:35:56+02:00
; #@! TF.GenerationSoftware,Kicad,Pcbnew,(6.0.8)
; #@! TF.FileFunction,Plated,1,2,PTH
FMAT,2
METRIC
; #@! TA.AperFunction,Plated,PTH,ViaDrill
T1C0.400
; #@! TA.AperFunction,Plated,PTH,ComponentDrill
T2C0.500
; #@! TA.AperFunction,Plated,PTH,ViaDrill
T3C0.600
; #@! TA.AperFunction,Plated,PTH,ComponentDrill
T4C0.700
; #@! TA.AperFunction,Plated,PTH,ComponentDrill
T5C0.750
; #@! TA.AperFunction,Plated,PTH,ComponentDrill
T6C1.000
; #@! TA.AperFunction,Plated,PTH,ComponentDrill
T7C1.520
; #@! TA.AperFunction,Plated,PTH,ComponentDrill
T8C3.000
%
G90
G05
T1
X119.825Y-105.835
X121.0Y-93.2
X121.65Y-96.6
X127.7Y-74.85
X127.7Y-75.875
X129.15Y-77.925
X130.475Y-74.5
X135.25Y-89.35
X136.75Y-92.2
X136.75Y-93.75
X136.9Y-76.4
X137.319Y-97.324
X138.125Y-93.4
X138.15Y-76.4
X138.469Y-97.324
X144.025Y-93.0
X149.15Y-93.85
X149.7Y-103.2
X150.25Y-104.55
X150.25Y-105.55
X151.2Y-101.0
X154.6Y-97.21
X155.2Y-105.55
X155.85Y-102.75
X156.0Y-99.65
X157.35Y-104.55
X157.75Y-92.81
X159.05Y-92.81
X167.9Y-93.66
X167.9Y-95.96
X168.15Y-87.46
X170.1Y-84.76
X173.2Y-108.1
X173.201Y-104.087
X173.3Y-84.825
X173.75Y-92.148
X173.9Y-103.35
X174.55Y-108.65
X174.75Y-93.975
X174.95Y-95.075
X175.1Y-96.175
X175.207Y-85.632
X175.3Y-86.825
X178.27Y-90.121
X178.45Y-84.56
X179.1Y-95.05
X179.1Y-96.15
X179.12Y-93.97
X179.33Y-92.18
X179.4Y-103.4
X179.8Y-71.0
X180.35Y-92.2
X180.375Y-78.275
X180.8Y-70.15
X181.4Y-64.6
X181.4Y-82.825
X181.8Y-70.1
X182.075Y-83.6
X182.175Y-63.425
X182.25Y-79.1
X182.65Y-107.925
X182.75Y-84.35
X182.8Y-70.1
X183.15Y-105.225
X183.15Y-106.625
X183.25Y-78.021
X183.45Y-103.325
X183.8Y-70.1
X184.4Y-101.55
X184.452Y-78.799
X184.8Y-70.1
X184.8Y-86.575
X185.65Y-105.525
X186.45Y-78.1
X186.925Y-81.25
X188.2Y-89.16
X189.15Y-87.91
X193.125Y-77.7
X193.375Y-74.475
X194.35Y-75.3
X194.35Y-77.75
X199.025Y-70.8
X199.225Y-91.9
X199.325Y-72.775
X202.675Y-92.35
X202.675Y-93.35
X202.675Y-94.35
X203.05Y-105.9
X203.7Y-91.275
X206.85Y-88.875
X207.225Y-78.075
X207.233Y-90.908
X207.275Y-85.3
X209.675Y-75.65
X209.675Y-80.45
X209.7Y-90.05
X209.8Y-85.275
T2
X114.725Y-50.9
X114.725Y-115.3
X115.384Y-49.309
X115.384Y-52.491
X115.384Y-113.709
X115.384Y-116.891
X116.975Y-48.65
X116.975Y-53.15
X116.975Y-113.05
X116.975Y-117.55
X118.566Y-49.309
X118.566Y-52.491
X118.566Y-113.709
X118.566Y-116.891
X119.225Y-50.9
X119.225Y-115.3
X205.875Y-50.9
X205.875Y-115.3
X206.534Y-49.309
X206.534Y-52.491
X206.534Y-113.709
X206.534Y-116.891
X208.125Y-48.65
X208.125Y-53.15
X208.125Y-113.05
X208.125Y-117.55
X209.716Y-49.309
X209.716Y-52.491
X209.716Y-113.709
X209.716Y-116.891
X210.375Y-50.9
X210.375Y-115.3
T3
X114.0Y-96.25
X114.0Y-99.0
X114.0Y-101.75
X114.0Y-104.5
X114.0Y-107.25
X114.0Y-110.0
X114.175Y-61.525
X114.175Y-64.375
X114.175Y-67.075
X114.175Y-69.775
X114.25Y-80.0
X116.875Y-61.525
X117.75Y-94.5
X119.35Y-69.775
X119.575Y-61.525
X119.75Y-80.0
X119.75Y-82.75
X119.75Y-85.5
X119.75Y-88.25
X119.75Y-91.0
X120.5Y-94.5
X120.75Y-116.75
X122.275Y-61.525
X123.5Y-116.75
X124.975Y-61.525
X125.32Y-67.773
X125.55Y-112.35
X127.26Y-59.52
X127.62Y-67.773
X129.28Y-47.82
X129.28Y-49.596
X129.66Y-59.525
X129.92Y-67.773
X130.0Y-107.25
X132.11Y-49.6
X132.22Y-67.773
X132.3Y-59.525
X132.3Y-61.225
X133.25Y-107.25
X134.52Y-67.773
X134.85Y-49.59
X137.7Y-49.58
X143.2Y-81.2
X143.274Y-53.175
X145.975Y-53.175
X146.45Y-109.95
X146.95Y-64.61
X148.225Y-94.65
X148.675Y-53.175
X148.8Y-64.61
X151.375Y-53.175
X152.0Y-57.41
X152.0Y-58.86
X154.75Y-57.41
X154.75Y-58.86
X155.075Y-53.175
X155.65Y-62.66
X157.2Y-83.6
X161.25Y-64.66
X162.95Y-64.66
X163.4Y-108.45
X166.8Y-52.725
X168.9Y-76.025
X169.4Y-62.8
X170.525Y-48.025
X170.525Y-50.375
X170.525Y-52.725
X171.2Y-62.8
X176.969Y-105.013
X191.327Y-99.998
X192.575Y-65.65
X193.327Y-99.998
X204.85Y-63.4
T4
X142.7Y-113.725
X143.97Y-112.455
X143.97Y-114.995
X145.24Y-113.725
T5
X177.005Y-64.39
X178.275Y-64.39
X179.545Y-64.39
T6
X170.8Y-109.735
X170.8Y-112.275
X173.34Y-109.735
X173.34Y-112.275
X175.775Y-99.45
X175.88Y-109.735
X175.88Y-112.275
X178.315Y-99.45
X178.42Y-109.735
X178.42Y-112.275
X180.96Y-109.735
X180.96Y-112.275
X183.5Y-109.735
X183.5Y-112.275
X186.04Y-109.735
X186.04Y-112.275
X188.58Y-109.735
X188.58Y-112.275
X191.12Y-109.735
X191.12Y-112.275
X193.66Y-109.735
X193.66Y-112.275
T7
X117.0Y-76.41
X117.0Y-81.49
T8
X116.975Y-50.9
X116.975Y-115.3
X208.125Y-50.9
X208.125Y-115.3
T0
M30
