%TF.GenerationSoftware,KiCad,Pcbnew,(6.0.8)*%
%TF.CreationDate,2023-04-21T14:35:49+02:00*%
%TF.ProjectId,Thermometer_IR_v2,54686572-6d6f-46d6-9574-65725f49525f,rev?*%
%TF.SameCoordinates,Original*%
%TF.FileFunction,Soldermask,Top*%
%TF.FilePolarity,Negative*%
%FSLAX46Y46*%
G04 Gerber Fmt 4.6, Leading zero omitted, Abs format (unit mm)*
G04 Created by KiCad (PCBNEW (6.0.8)) date 2023-04-21 14:35:49*
%MOMM*%
%LPD*%
G01*
G04 APERTURE LIST*
G04 Aperture macros list*
%AMRoundRect*
0 Rectangle with rounded corners*
0 $1 Rounding radius*
0 $2 $3 $4 $5 $6 $7 $8 $9 X,Y pos of 4 corners*
0 Add a 4 corners polygon primitive as box body*
4,1,4,$2,$3,$4,$5,$6,$7,$8,$9,$2,$3,0*
0 Add four circle primitives for the rounded corners*
1,1,$1+$1,$2,$3*
1,1,$1+$1,$4,$5*
1,1,$1+$1,$6,$7*
1,1,$1+$1,$8,$9*
0 Add four rect primitives between the rounded corners*
20,1,$1+$1,$2,$3,$4,$5,0*
20,1,$1+$1,$4,$5,$6,$7,0*
20,1,$1+$1,$6,$7,$8,$9,0*
20,1,$1+$1,$8,$9,$2,$3,0*%
%AMFreePoly0*
4,1,22,0.550000,-0.750000,0.000000,-0.750000,0.000000,-0.745033,-0.079941,-0.743568,-0.215256,-0.701293,-0.333266,-0.622738,-0.424486,-0.514219,-0.481581,-0.384460,-0.499164,-0.250000,-0.500000,-0.250000,-0.500000,0.250000,-0.499164,0.250000,-0.499963,0.256109,-0.478152,0.396186,-0.417904,0.524511,-0.324060,0.630769,-0.204165,0.706417,-0.067858,0.745374,0.000000,0.744959,0.000000,0.750000,
0.550000,0.750000,0.550000,-0.750000,0.550000,-0.750000,$1*%
%AMFreePoly1*
4,1,20,0.000000,0.744959,0.073905,0.744508,0.209726,0.703889,0.328688,0.626782,0.421226,0.519385,0.479903,0.390333,0.500000,0.250000,0.500000,-0.250000,0.499851,-0.262216,0.476331,-0.402017,0.414519,-0.529596,0.319384,-0.634700,0.198574,-0.708877,0.061801,-0.746166,0.000000,-0.745033,0.000000,-0.750000,-0.550000,-0.750000,-0.550000,0.750000,0.000000,0.750000,0.000000,0.744959,
0.000000,0.744959,$1*%
G04 Aperture macros list end*
%ADD10C,0.150000*%
%ADD11RoundRect,0.250000X0.450000X-0.262500X0.450000X0.262500X-0.450000X0.262500X-0.450000X-0.262500X0*%
%ADD12RoundRect,0.250000X-0.250000X-0.475000X0.250000X-0.475000X0.250000X0.475000X-0.250000X0.475000X0*%
%ADD13RoundRect,0.250000X-0.650000X0.325000X-0.650000X-0.325000X0.650000X-0.325000X0.650000X0.325000X0*%
%ADD14RoundRect,0.250000X0.262500X0.450000X-0.262500X0.450000X-0.262500X-0.450000X0.262500X-0.450000X0*%
%ADD15RoundRect,0.250000X-0.475000X0.250000X-0.475000X-0.250000X0.475000X-0.250000X0.475000X0.250000X0*%
%ADD16RoundRect,0.218750X-0.218750X-0.381250X0.218750X-0.381250X0.218750X0.381250X-0.218750X0.381250X0*%
%ADD17RoundRect,0.250000X-0.375000X-0.625000X0.375000X-0.625000X0.375000X0.625000X-0.375000X0.625000X0*%
%ADD18RoundRect,0.250000X0.250000X0.475000X-0.250000X0.475000X-0.250000X-0.475000X0.250000X-0.475000X0*%
%ADD19R,1.700000X1.700000*%
%ADD20O,1.700000X1.700000*%
%ADD21RoundRect,0.250000X-0.450000X0.262500X-0.450000X-0.262500X0.450000X-0.262500X0.450000X0.262500X0*%
%ADD22R,0.650000X0.400000*%
%ADD23RoundRect,0.250000X0.325000X0.650000X-0.325000X0.650000X-0.325000X-0.650000X0.325000X-0.650000X0*%
%ADD24RoundRect,0.250000X0.475000X-0.250000X0.475000X0.250000X-0.475000X0.250000X-0.475000X-0.250000X0*%
%ADD25RoundRect,0.150000X-0.825000X-0.150000X0.825000X-0.150000X0.825000X0.150000X-0.825000X0.150000X0*%
%ADD26RoundRect,0.250000X-0.262500X-0.450000X0.262500X-0.450000X0.262500X0.450000X-0.262500X0.450000X0*%
%ADD27RoundRect,0.250000X0.550000X-1.050000X0.550000X1.050000X-0.550000X1.050000X-0.550000X-1.050000X0*%
%ADD28RoundRect,0.250000X1.050000X0.550000X-1.050000X0.550000X-1.050000X-0.550000X1.050000X-0.550000X0*%
%ADD29RoundRect,0.250000X0.650000X-0.325000X0.650000X0.325000X-0.650000X0.325000X-0.650000X-0.325000X0*%
%ADD30RoundRect,0.150000X0.150000X-0.512500X0.150000X0.512500X-0.150000X0.512500X-0.150000X-0.512500X0*%
%ADD31RoundRect,0.250000X0.625000X-0.375000X0.625000X0.375000X-0.625000X0.375000X-0.625000X-0.375000X0*%
%ADD32R,1.100000X1.100000*%
%ADD33C,0.800000*%
%ADD34C,6.000000*%
%ADD35RoundRect,0.075000X0.700000X0.075000X-0.700000X0.075000X-0.700000X-0.075000X0.700000X-0.075000X0*%
%ADD36RoundRect,0.075000X0.075000X0.700000X-0.075000X0.700000X-0.075000X-0.700000X0.075000X-0.700000X0*%
%ADD37C,2.000000*%
%ADD38O,1.600000X1.200000*%
%ADD39O,1.200000X1.200000*%
%ADD40R,4.500000X2.000000*%
%ADD41R,1.600000X1.400000*%
%ADD42R,3.000000X3.000000*%
%ADD43C,3.000000*%
%ADD44R,1.800000X2.500000*%
%ADD45RoundRect,0.100000X-0.637500X-0.100000X0.637500X-0.100000X0.637500X0.100000X-0.637500X0.100000X0*%
%ADD46RoundRect,0.150000X0.512500X0.150000X-0.512500X0.150000X-0.512500X-0.150000X0.512500X-0.150000X0*%
%ADD47RoundRect,0.150000X-0.512500X-0.150000X0.512500X-0.150000X0.512500X0.150000X-0.512500X0.150000X0*%
%ADD48R,1.050000X1.500000*%
%ADD49O,1.050000X1.500000*%
%ADD50R,1.500000X2.000000*%
%ADD51R,3.800000X2.000000*%
%ADD52RoundRect,0.250000X-1.050000X-0.550000X1.050000X-0.550000X1.050000X0.550000X-1.050000X0.550000X0*%
%ADD53R,1.300000X0.300000*%
%ADD54R,2.200000X1.800000*%
%ADD55RoundRect,0.150000X0.150000X-0.825000X0.150000X0.825000X-0.150000X0.825000X-0.150000X-0.825000X0*%
%ADD56FreePoly0,180.000000*%
%ADD57R,1.000000X1.500000*%
%ADD58FreePoly1,180.000000*%
%ADD59O,1.500000X2.000000*%
%ADD60R,2.000000X3.000000*%
%ADD61R,2.500000X1.800000*%
%ADD62RoundRect,0.250000X-0.325000X-0.650000X0.325000X-0.650000X0.325000X0.650000X-0.325000X0.650000X0*%
%ADD63R,1.500000X2.200000*%
G04 APERTURE END LIST*
D10*
G36*
X181030000Y-90790000D02*
G01*
X180870000Y-90790000D01*
X180870000Y-89760000D01*
X181030000Y-89760000D01*
X181030000Y-90790000D01*
G37*
X181030000Y-90790000D02*
X180870000Y-90790000D01*
X180870000Y-89760000D01*
X181030000Y-89760000D01*
X181030000Y-90790000D01*
G36*
X175130000Y-79190000D02*
G01*
X174100000Y-79190000D01*
X174100000Y-79030000D01*
X175130000Y-79030000D01*
X175130000Y-79190000D01*
G37*
X175130000Y-79190000D02*
X174100000Y-79190000D01*
X174100000Y-79030000D01*
X175130000Y-79030000D01*
X175130000Y-79190000D01*
G36*
X175130000Y-78680000D02*
G01*
X174100000Y-78680000D01*
X174100000Y-78520000D01*
X175130000Y-78520000D01*
X175130000Y-78680000D01*
G37*
X175130000Y-78680000D02*
X174100000Y-78680000D01*
X174100000Y-78520000D01*
X175130000Y-78520000D01*
X175130000Y-78680000D01*
G36*
X175130000Y-83190000D02*
G01*
X174100000Y-83190000D01*
X174100000Y-83030000D01*
X175130000Y-83030000D01*
X175130000Y-83190000D01*
G37*
X175130000Y-83190000D02*
X174100000Y-83190000D01*
X174100000Y-83030000D01*
X175130000Y-83030000D01*
X175130000Y-83190000D01*
G36*
X175130000Y-81180000D02*
G01*
X174100000Y-81180000D01*
X174100000Y-81020000D01*
X175130000Y-81020000D01*
X175130000Y-81180000D01*
G37*
X175130000Y-81180000D02*
X174100000Y-81180000D01*
X174100000Y-81020000D01*
X175130000Y-81020000D01*
X175130000Y-81180000D01*
G36*
X175130000Y-83690000D02*
G01*
X174100000Y-83690000D01*
X174100000Y-83530000D01*
X175130000Y-83530000D01*
X175130000Y-83690000D01*
G37*
X175130000Y-83690000D02*
X174100000Y-83690000D01*
X174100000Y-83530000D01*
X175130000Y-83530000D01*
X175130000Y-83690000D01*
G36*
X175130000Y-80190000D02*
G01*
X174100000Y-80190000D01*
X174100000Y-80030000D01*
X175130000Y-80030000D01*
X175130000Y-80190000D01*
G37*
X175130000Y-80190000D02*
X174100000Y-80190000D01*
X174100000Y-80030000D01*
X175130000Y-80030000D01*
X175130000Y-80190000D01*
G36*
X175130000Y-82190000D02*
G01*
X174100000Y-82190000D01*
X174100000Y-82030000D01*
X175130000Y-82030000D01*
X175130000Y-82190000D01*
G37*
X175130000Y-82190000D02*
X174100000Y-82190000D01*
X174100000Y-82030000D01*
X175130000Y-82030000D01*
X175130000Y-82190000D01*
G36*
X175130000Y-81680000D02*
G01*
X174100000Y-81680000D01*
X174100000Y-81520000D01*
X175130000Y-81520000D01*
X175130000Y-81680000D01*
G37*
X175130000Y-81680000D02*
X174100000Y-81680000D01*
X174100000Y-81520000D01*
X175130000Y-81520000D01*
X175130000Y-81680000D01*
G36*
X175130000Y-80690000D02*
G01*
X174100000Y-80690000D01*
X174100000Y-80530000D01*
X175130000Y-80530000D01*
X175130000Y-80690000D01*
G37*
X175130000Y-80690000D02*
X174100000Y-80690000D01*
X174100000Y-80530000D01*
X175130000Y-80530000D01*
X175130000Y-80690000D01*
G36*
X175130000Y-82690000D02*
G01*
X174100000Y-82690000D01*
X174100000Y-82530000D01*
X175130000Y-82530000D01*
X175130000Y-82690000D01*
G37*
X175130000Y-82690000D02*
X174100000Y-82690000D01*
X174100000Y-82530000D01*
X175130000Y-82530000D01*
X175130000Y-82690000D01*
G36*
X175130000Y-79690000D02*
G01*
X174100000Y-79690000D01*
X174100000Y-79530000D01*
X175130000Y-79530000D01*
X175130000Y-79690000D01*
G37*
X175130000Y-79690000D02*
X174100000Y-79690000D01*
X174100000Y-79530000D01*
X175130000Y-79530000D01*
X175130000Y-79690000D01*
G36*
X181540000Y-90790000D02*
G01*
X181380000Y-90790000D01*
X181380000Y-89760000D01*
X181540000Y-89760000D01*
X181540000Y-90790000D01*
G37*
X181540000Y-90790000D02*
X181380000Y-90790000D01*
X181380000Y-89760000D01*
X181540000Y-89760000D01*
X181540000Y-90790000D01*
D11*
%TO.C,R30*%
X127700000Y-71862500D03*
X127700000Y-70037500D03*
%TD*%
D12*
%TO.C,C30*%
X157000000Y-102750000D03*
X158900000Y-102750000D03*
%TD*%
D13*
%TO.C,C28*%
X140450000Y-101266350D03*
X140450000Y-104216350D03*
%TD*%
D14*
%TO.C,R5*%
X139462500Y-110250000D03*
X137637500Y-110250000D03*
%TD*%
D11*
%TO.C,R13*%
X158400000Y-109662500D03*
X158400000Y-107837500D03*
%TD*%
D15*
%TO.C,C27*%
X137919400Y-98923761D03*
X137919400Y-100823761D03*
%TD*%
D12*
%TO.C,C20*%
X137050000Y-90100000D03*
X138950000Y-90100000D03*
%TD*%
D16*
%TO.C,FB1*%
X137947100Y-60712664D03*
X140072100Y-60712664D03*
%TD*%
D17*
%TO.C,F2*%
X122496412Y-74600000D03*
X125296412Y-74600000D03*
%TD*%
D18*
%TO.C,C7*%
X196600000Y-99997764D03*
X194700000Y-99997764D03*
%TD*%
D19*
%TO.C,J2*%
X170800000Y-109735264D03*
D20*
X170800000Y-112275264D03*
X173340000Y-109735264D03*
X173340000Y-112275264D03*
X175880000Y-109735264D03*
X175880000Y-112275264D03*
X178420000Y-109735264D03*
X178420000Y-112275264D03*
X180960000Y-109735264D03*
X180960000Y-112275264D03*
X183500000Y-109735264D03*
X183500000Y-112275264D03*
X186040000Y-109735264D03*
X186040000Y-112275264D03*
X188580000Y-109735264D03*
X188580000Y-112275264D03*
X191120000Y-109735264D03*
X191120000Y-112275264D03*
X193660000Y-109735264D03*
X193660000Y-112275264D03*
%TD*%
D14*
%TO.C,R4*%
X139462500Y-112250264D03*
X137637500Y-112250264D03*
%TD*%
D21*
%TO.C,R12*%
X154335856Y-109987500D03*
X154335856Y-111812500D03*
%TD*%
D22*
%TO.C,U19*%
X165200000Y-113400000D03*
X165200000Y-114050000D03*
X165200000Y-114700000D03*
X167100000Y-114700000D03*
X167100000Y-113400000D03*
%TD*%
D15*
%TO.C,C33*%
X163112500Y-94385264D03*
X163112500Y-96285264D03*
%TD*%
D23*
%TO.C,C48*%
X151175000Y-96375000D03*
X148225000Y-96375000D03*
%TD*%
D24*
%TO.C,C71*%
X129950000Y-71900000D03*
X129950000Y-70000000D03*
%TD*%
D25*
%TO.C,U10*%
X122300000Y-103480000D03*
X122300000Y-104750000D03*
X122300000Y-106020000D03*
X122300000Y-107290000D03*
X127250000Y-107290000D03*
X127250000Y-106020000D03*
X127250000Y-104750000D03*
X127250000Y-103480000D03*
%TD*%
D14*
%TO.C,R28*%
X120062500Y-97250000D03*
X118237500Y-97250000D03*
%TD*%
D26*
%TO.C,R2*%
X176012500Y-102600000D03*
X177837500Y-102600000D03*
%TD*%
D21*
%TO.C,R9*%
X152285856Y-109967500D03*
X152285856Y-111792500D03*
%TD*%
D27*
%TO.C,C65*%
X188875000Y-68200264D03*
X188875000Y-64600264D03*
%TD*%
D26*
%TO.C,R22*%
X196575000Y-74603887D03*
X198400000Y-74603887D03*
%TD*%
D28*
%TO.C,C63*%
X208200000Y-61600264D03*
X204600000Y-61600264D03*
%TD*%
D24*
%TO.C,C22*%
X135700000Y-112200000D03*
X135700000Y-110300000D03*
%TD*%
D12*
%TO.C,C14*%
X186300000Y-90610264D03*
X188200000Y-90610264D03*
%TD*%
D29*
%TO.C,C61*%
X127250000Y-112325000D03*
X127250000Y-109375000D03*
%TD*%
D24*
%TO.C,C43*%
X125300000Y-71910264D03*
X125300000Y-70010264D03*
%TD*%
D30*
%TO.C,U4*%
X139019400Y-94523761D03*
X139969400Y-94523761D03*
X140919400Y-94523761D03*
X140919400Y-92248761D03*
X139019400Y-92248761D03*
%TD*%
D31*
%TO.C,F1*%
X129894374Y-55450000D03*
X129894374Y-52650000D03*
%TD*%
D18*
%TO.C,C17*%
X172000000Y-86110264D03*
X170100000Y-86110264D03*
%TD*%
D15*
%TO.C,C16*%
X190600000Y-79400264D03*
X190600000Y-81300264D03*
%TD*%
D32*
%TO.C,D8*%
X117800000Y-99450000D03*
X120600000Y-99450000D03*
%TD*%
D33*
%TO.C,H2*%
X115384010Y-49309010D03*
X116975000Y-48650000D03*
X118565990Y-52490990D03*
X116975000Y-53150000D03*
X115384010Y-52490990D03*
X114725000Y-50900000D03*
X119225000Y-50900000D03*
D34*
X116975000Y-50900000D03*
D33*
X118565990Y-49309010D03*
%TD*%
D11*
%TO.C,R19*%
X132200000Y-71872764D03*
X132200000Y-70047764D03*
%TD*%
D18*
%TO.C,C24*%
X142337500Y-96841350D03*
X140437500Y-96841350D03*
%TD*%
D11*
%TO.C,R20*%
X134500000Y-71872764D03*
X134500000Y-70047764D03*
%TD*%
D35*
%TO.C,U1*%
X188375000Y-86110264D03*
X188375000Y-85610264D03*
X188375000Y-85110264D03*
X188375000Y-84610264D03*
X188375000Y-84110264D03*
X188375000Y-83610264D03*
X188375000Y-83110264D03*
X188375000Y-82610264D03*
X188375000Y-82110264D03*
X188375000Y-81610264D03*
X188375000Y-81110264D03*
X188375000Y-80610264D03*
X188375000Y-80110264D03*
X188375000Y-79610264D03*
X188375000Y-79110264D03*
X188375000Y-78610264D03*
D36*
X186450000Y-76685264D03*
X185950000Y-76685264D03*
X185450000Y-76685264D03*
X184950000Y-76685264D03*
X184450000Y-76685264D03*
X183950000Y-76685264D03*
X183450000Y-76685264D03*
X182950000Y-76685264D03*
X182450000Y-76685264D03*
X181950000Y-76685264D03*
X181450000Y-76685264D03*
X180950000Y-76685264D03*
X180450000Y-76685264D03*
X179950000Y-76685264D03*
X179450000Y-76685264D03*
X178950000Y-76685264D03*
D35*
X177025000Y-78610264D03*
X177025000Y-79110264D03*
X177025000Y-79610264D03*
X177025000Y-80110264D03*
X177025000Y-80610264D03*
X177025000Y-81110264D03*
X177025000Y-81610264D03*
X177025000Y-82110264D03*
X177025000Y-82610264D03*
X177025000Y-83110264D03*
X177025000Y-83610264D03*
X177025000Y-84110264D03*
X177025000Y-84610264D03*
X177025000Y-85110264D03*
X177025000Y-85610264D03*
X177025000Y-86110264D03*
D36*
X178950000Y-88035264D03*
X179450000Y-88035264D03*
X179950000Y-88035264D03*
X180450000Y-88035264D03*
X180950000Y-88035264D03*
X181450000Y-88035264D03*
X181950000Y-88035264D03*
X182450000Y-88035264D03*
X182950000Y-88035264D03*
X183450000Y-88035264D03*
X183950000Y-88035264D03*
X184450000Y-88035264D03*
X184950000Y-88035264D03*
X185450000Y-88035264D03*
X185950000Y-88035264D03*
X186450000Y-88035264D03*
%TD*%
D22*
%TO.C,U12*%
X200025000Y-77050000D03*
X200025000Y-77700000D03*
X200025000Y-78350000D03*
X201925000Y-78350000D03*
X201925000Y-77050000D03*
%TD*%
D26*
%TO.C,R16*%
X144662500Y-96575000D03*
X146487500Y-96575000D03*
%TD*%
D37*
%TO.C,TP4*%
X146400000Y-57160264D03*
%TD*%
D24*
%TO.C,C15*%
X177750000Y-74225000D03*
X177750000Y-72325000D03*
%TD*%
D29*
%TO.C,C62*%
X168500000Y-55715264D03*
X168500000Y-52765264D03*
%TD*%
D38*
%TO.C,U3*%
X142699586Y-113724965D03*
D39*
X143969586Y-114994965D03*
X145239586Y-113724965D03*
X143969586Y-112454965D03*
%TD*%
D12*
%TO.C,C35*%
X166250000Y-90860264D03*
X168150000Y-90860264D03*
%TD*%
D40*
%TO.C,Y1*%
X188100000Y-96047764D03*
X196600000Y-96047764D03*
%TD*%
D22*
%TO.C,U15*%
X200021000Y-83250000D03*
X200021000Y-83900000D03*
X200021000Y-84550000D03*
X201921000Y-84550000D03*
X201921000Y-83250000D03*
%TD*%
D21*
%TO.C,R1*%
X190875000Y-90637764D03*
X190875000Y-92462764D03*
%TD*%
D18*
%TO.C,C23*%
X131650000Y-110200000D03*
X129750000Y-110200000D03*
%TD*%
D41*
%TO.C,SW3*%
X206725000Y-105925264D03*
X199525000Y-105925264D03*
X206725000Y-102925264D03*
X199525000Y-102925264D03*
%TD*%
D18*
%TO.C,C64*%
X206750000Y-65150264D03*
X204850000Y-65150264D03*
%TD*%
%TO.C,C26*%
X135250000Y-93200000D03*
X133350000Y-93200000D03*
%TD*%
D15*
%TO.C,C32*%
X148600000Y-106300000D03*
X148600000Y-108200000D03*
%TD*%
D12*
%TO.C,C29*%
X154550000Y-93710264D03*
X156450000Y-93710264D03*
%TD*%
D15*
%TO.C,C47*%
X142500000Y-63810264D03*
X142500000Y-65710264D03*
%TD*%
D18*
%TO.C,C55*%
X141362500Y-76410264D03*
X139462500Y-76410264D03*
%TD*%
D12*
%TO.C,C37*%
X170100000Y-88210264D03*
X172000000Y-88210264D03*
%TD*%
D42*
%TO.C,J4*%
X117000000Y-81490000D03*
D43*
X117000000Y-76410000D03*
%TD*%
D19*
%TO.C,J3*%
X175775000Y-99450264D03*
D20*
X178315000Y-99450264D03*
%TD*%
D23*
%TO.C,C19*%
X138200000Y-87750000D03*
X135250000Y-87750000D03*
%TD*%
D44*
%TO.C,D5*%
X135160000Y-56396251D03*
X135160000Y-52396251D03*
%TD*%
D15*
%TO.C,C51*%
X162047400Y-60661864D03*
X162047400Y-62561864D03*
%TD*%
D28*
%TO.C,C45*%
X133150000Y-64360264D03*
X129550000Y-64360264D03*
%TD*%
D45*
%TO.C,U6*%
X166250000Y-92710264D03*
X166250000Y-93360264D03*
X166250000Y-94010264D03*
X166250000Y-94660264D03*
X166250000Y-95310264D03*
X166250000Y-95960264D03*
X166250000Y-96610264D03*
X166250000Y-97260264D03*
X166250000Y-97910264D03*
X166250000Y-98560264D03*
X171975000Y-98560264D03*
X171975000Y-97910264D03*
X171975000Y-97260264D03*
X171975000Y-96610264D03*
X171975000Y-95960264D03*
X171975000Y-95310264D03*
X171975000Y-94660264D03*
X171975000Y-94010264D03*
X171975000Y-93360264D03*
X171975000Y-92710264D03*
%TD*%
D37*
%TO.C,TP8*%
X174875000Y-50950000D03*
%TD*%
D18*
%TO.C,C57*%
X127250000Y-101690000D03*
X125350000Y-101690000D03*
%TD*%
%TO.C,C13*%
X172150000Y-78275000D03*
X170250000Y-78275000D03*
%TD*%
D13*
%TO.C,C59*%
X119775000Y-104360000D03*
X119775000Y-107310000D03*
%TD*%
D32*
%TO.C,D1*%
X129550000Y-105950000D03*
X132350000Y-105950000D03*
%TD*%
D26*
%TO.C,R24*%
X196575000Y-83900000D03*
X198400000Y-83900000D03*
%TD*%
D24*
%TO.C,C52*%
X162047400Y-68688264D03*
X162047400Y-66788264D03*
%TD*%
D26*
%TO.C,R11*%
X154587500Y-95860264D03*
X156412500Y-95860264D03*
%TD*%
D23*
%TO.C,C69*%
X146575000Y-106375000D03*
X143625000Y-106375000D03*
%TD*%
D13*
%TO.C,C50*%
X159050200Y-60661864D03*
X159050200Y-63611864D03*
%TD*%
D46*
%TO.C,U8*%
X134587500Y-76950000D03*
X134587500Y-76000000D03*
X134587500Y-75050000D03*
X132312500Y-75050000D03*
X132312500Y-76950000D03*
%TD*%
D18*
%TO.C,C31*%
X158300000Y-105850000D03*
X156400000Y-105850000D03*
%TD*%
D11*
%TO.C,R8*%
X130239000Y-99286261D03*
X130239000Y-97461261D03*
%TD*%
D15*
%TO.C,C41*%
X147848800Y-60710864D03*
X147848800Y-62610864D03*
%TD*%
D23*
%TO.C,C12*%
X173225000Y-76025000D03*
X170275000Y-76025000D03*
%TD*%
D28*
%TO.C,C1*%
X167000000Y-106700000D03*
X163400000Y-106700000D03*
%TD*%
D24*
%TO.C,C10*%
X179800000Y-74225000D03*
X179800000Y-72325000D03*
%TD*%
D29*
%TO.C,C44*%
X144900000Y-68662064D03*
X144900000Y-65712064D03*
%TD*%
D22*
%TO.C,U16*%
X200021000Y-89450000D03*
X200021000Y-90100000D03*
X200021000Y-90750000D03*
X201921000Y-90750000D03*
X201921000Y-89450000D03*
%TD*%
D37*
%TO.C,TP2*%
X162700000Y-98650000D03*
%TD*%
D32*
%TO.C,D2*%
X134600000Y-105900000D03*
X137400000Y-105900000D03*
%TD*%
%TO.C,D3*%
X129550000Y-103500000D03*
X132350000Y-103500000D03*
%TD*%
D24*
%TO.C,C6*%
X197250000Y-105325264D03*
X197250000Y-103425264D03*
%TD*%
D26*
%TO.C,R25*%
X196575000Y-90100000D03*
X198400000Y-90100000D03*
%TD*%
D37*
%TO.C,TP3*%
X145700000Y-73500264D03*
%TD*%
D11*
%TO.C,R29*%
X115400000Y-105312500D03*
X115400000Y-103487500D03*
%TD*%
%TO.C,R14*%
X156400000Y-109662500D03*
X156400000Y-107837500D03*
%TD*%
D12*
%TO.C,C21*%
X129750000Y-112300000D03*
X131650000Y-112300000D03*
%TD*%
D47*
%TO.C,U11*%
X159651393Y-53290264D03*
X159651393Y-54240264D03*
X159651393Y-55190264D03*
X161926393Y-55190264D03*
X161926393Y-53290264D03*
%TD*%
D26*
%TO.C,R26*%
X196575000Y-87000000D03*
X198400000Y-87000000D03*
%TD*%
%TO.C,R23*%
X196575000Y-80800000D03*
X198400000Y-80800000D03*
%TD*%
D48*
%TO.C,U2*%
X179545000Y-64390000D03*
D49*
X178275000Y-64390000D03*
X177005000Y-64390000D03*
%TD*%
D50*
%TO.C,U9*%
X169847800Y-60636464D03*
X167547800Y-60636464D03*
X165247800Y-60636464D03*
D51*
X167547800Y-66936464D03*
%TD*%
D14*
%TO.C,R27*%
X197800000Y-70800264D03*
X195975000Y-70800264D03*
%TD*%
D13*
%TO.C,C40*%
X144902400Y-60710864D03*
X144902400Y-63660864D03*
%TD*%
D12*
%TO.C,C38*%
X170100000Y-90260264D03*
X172000000Y-90260264D03*
%TD*%
D11*
%TO.C,R10*%
X150242928Y-111792500D03*
X150242928Y-109967500D03*
%TD*%
D37*
%TO.C,TP6*%
X173725000Y-64900000D03*
%TD*%
%TO.C,TP5*%
X141400000Y-69450264D03*
%TD*%
%TO.C,TP7*%
X140300000Y-107400000D03*
%TD*%
D26*
%TO.C,R21*%
X196575000Y-77700000D03*
X198400000Y-77700000D03*
%TD*%
D24*
%TO.C,C42*%
X147850000Y-68660264D03*
X147850000Y-66760264D03*
%TD*%
D15*
%TO.C,C18*%
X190600000Y-86110264D03*
X190600000Y-88010264D03*
%TD*%
D26*
%TO.C,R17*%
X157037500Y-98650000D03*
X158862500Y-98650000D03*
%TD*%
D22*
%TO.C,U13*%
X200025000Y-73950000D03*
X200025000Y-74600000D03*
X200025000Y-75250000D03*
X201925000Y-75250000D03*
X201925000Y-73950000D03*
%TD*%
D32*
%TO.C,D10*%
X115400000Y-98800000D03*
X115400000Y-101600000D03*
%TD*%
D18*
%TO.C,C70*%
X158900000Y-100700000D03*
X157000000Y-100700000D03*
%TD*%
D22*
%TO.C,U14*%
X200025000Y-80150000D03*
X200025000Y-80800000D03*
X200025000Y-81450000D03*
X201925000Y-81450000D03*
X201925000Y-80150000D03*
%TD*%
D27*
%TO.C,C39*%
X141400000Y-84750264D03*
X141400000Y-81150264D03*
%TD*%
D52*
%TO.C,C36*%
X153586667Y-85336010D03*
X157186667Y-85336010D03*
%TD*%
D22*
%TO.C,U17*%
X200025000Y-86350000D03*
X200025000Y-87000000D03*
X200025000Y-87650000D03*
X201925000Y-87650000D03*
X201925000Y-86350000D03*
%TD*%
D18*
%TO.C,C2*%
X165650000Y-110350000D03*
X163750000Y-110350000D03*
%TD*%
D27*
%TO.C,C49*%
X140076400Y-56111864D03*
X140076400Y-52511864D03*
%TD*%
D53*
%TO.C,J5*%
X205300000Y-71360264D03*
X205300000Y-71860264D03*
X205300000Y-72360264D03*
X205300000Y-72860264D03*
X205300000Y-73360264D03*
X205300000Y-73860264D03*
X205300000Y-74360264D03*
X205300000Y-74860264D03*
X205300000Y-75360264D03*
X205300000Y-75860264D03*
X205300000Y-76360264D03*
X205300000Y-76860264D03*
X205300000Y-77360264D03*
X205300000Y-77860264D03*
X205300000Y-78360264D03*
X205300000Y-78860264D03*
X205300000Y-79360264D03*
X205300000Y-79860264D03*
X205300000Y-80360264D03*
X205300000Y-80860264D03*
X205300000Y-81360264D03*
X205300000Y-81860264D03*
X205300000Y-82360264D03*
X205300000Y-82860264D03*
X205300000Y-83360264D03*
X205300000Y-83860264D03*
X205300000Y-84360264D03*
X205300000Y-84860264D03*
X205300000Y-85360264D03*
X205300000Y-85860264D03*
X205300000Y-86360264D03*
X205300000Y-86860264D03*
X205300000Y-87360264D03*
X205300000Y-87860264D03*
X205300000Y-88360264D03*
X205300000Y-88860264D03*
X205300000Y-89360264D03*
X205300000Y-89860264D03*
X205300000Y-90360264D03*
X205300000Y-90860264D03*
X205300000Y-91360264D03*
X205300000Y-91860264D03*
X205300000Y-92360264D03*
X205300000Y-92860264D03*
X205300000Y-93360264D03*
D54*
X208550000Y-95260264D03*
X208550000Y-69460264D03*
%TD*%
D23*
%TO.C,C11*%
X173225000Y-73575000D03*
X170275000Y-73575000D03*
%TD*%
D24*
%TO.C,C66*%
X192575000Y-69000264D03*
X192575000Y-67100264D03*
%TD*%
D18*
%TO.C,C46*%
X135844800Y-60712664D03*
X133944800Y-60712664D03*
%TD*%
D12*
%TO.C,C3*%
X188100000Y-99997764D03*
X190000000Y-99997764D03*
%TD*%
D24*
%TO.C,C60*%
X165274200Y-55190264D03*
X165274200Y-53290264D03*
%TD*%
D55*
%TO.C,U5*%
X132114400Y-100848761D03*
X133384400Y-100848761D03*
X134654400Y-100848761D03*
X135924400Y-100848761D03*
X135924400Y-95898761D03*
X134654400Y-95898761D03*
X133384400Y-95898761D03*
X132114400Y-95898761D03*
%TD*%
D37*
%TO.C,TP1*%
X155550000Y-90960264D03*
%TD*%
D29*
%TO.C,C54*%
X159050200Y-68688264D03*
X159050200Y-65738264D03*
%TD*%
D24*
%TO.C,C67*%
X152300000Y-101975000D03*
X152300000Y-100075000D03*
%TD*%
D44*
%TO.C,D7*%
X137900000Y-64060264D03*
X137900000Y-68060264D03*
%TD*%
D21*
%TO.C,R6*%
X142819400Y-92123761D03*
X142819400Y-93948761D03*
%TD*%
D56*
%TO.C,SW4*%
X175668618Y-106463028D03*
D57*
X174368618Y-106463028D03*
D58*
X173068618Y-106463028D03*
%TD*%
D12*
%TO.C,C34*%
X166250000Y-88810264D03*
X168150000Y-88810264D03*
%TD*%
D50*
%TO.C,U7*%
X155674600Y-60712664D03*
X153374600Y-60712664D03*
X151074600Y-60712664D03*
D51*
X153374600Y-67012664D03*
%TD*%
D18*
%TO.C,C53*%
X141362500Y-74310264D03*
X139462500Y-74310264D03*
%TD*%
D14*
%TO.C,R18*%
X141312500Y-72060264D03*
X139487500Y-72060264D03*
%TD*%
D29*
%TO.C,C56*%
X153346693Y-55715264D03*
X153346693Y-52765264D03*
%TD*%
D14*
%TO.C,R7*%
X142300000Y-98941350D03*
X140475000Y-98941350D03*
%TD*%
D24*
%TO.C,C58*%
X156597893Y-55190264D03*
X156597893Y-53290264D03*
%TD*%
D25*
%TO.C,U18*%
X144625000Y-98445000D03*
X144625000Y-99715000D03*
X144625000Y-100985000D03*
X144625000Y-102255000D03*
X149575000Y-102255000D03*
X149575000Y-100985000D03*
X149575000Y-99715000D03*
X149575000Y-98445000D03*
%TD*%
D37*
%TO.C,J1*%
X120846412Y-63288188D03*
D59*
X116446412Y-63288188D03*
D60*
X122346412Y-57788188D03*
X116346412Y-57788188D03*
X122346412Y-68788188D03*
X116346412Y-68788188D03*
%TD*%
D32*
%TO.C,D4*%
X134600000Y-103500000D03*
X137400000Y-103500000D03*
%TD*%
D18*
%TO.C,C68*%
X146500000Y-104100000D03*
X144600000Y-104100000D03*
%TD*%
D33*
%TO.C,H1*%
X208125000Y-117550000D03*
X209715990Y-113709010D03*
X208125000Y-113050000D03*
X206534010Y-116890990D03*
X205875000Y-115300000D03*
X210375000Y-115300000D03*
X206534010Y-113709010D03*
X209715990Y-116890990D03*
D34*
X208125000Y-115300000D03*
%TD*%
D61*
%TO.C,D9*%
X136800000Y-80760264D03*
X132800000Y-80760264D03*
%TD*%
D34*
%TO.C,H4*%
X116975000Y-115300000D03*
D33*
X119225000Y-115300000D03*
X116975000Y-113050000D03*
X114725000Y-115300000D03*
X115384010Y-116890990D03*
X116975000Y-117550000D03*
X115384010Y-113709010D03*
X118565990Y-113709010D03*
X118565990Y-116890990D03*
%TD*%
D62*
%TO.C,C25*%
X132300000Y-90950000D03*
X135250000Y-90950000D03*
%TD*%
D63*
%TO.C,L1*%
X122600000Y-80760264D03*
X129000000Y-80760264D03*
%TD*%
D33*
%TO.C,H3*%
X206534010Y-52490990D03*
X205875000Y-50900000D03*
X208125000Y-53150000D03*
D34*
X208125000Y-50900000D03*
D33*
X208125000Y-48650000D03*
X209715990Y-49309010D03*
X210375000Y-50900000D03*
X206534010Y-49309010D03*
X209715990Y-52490990D03*
%TD*%
M02*
